<?xml version="1.0" encoding="UTF-8"?>
<!-- Generator: Adobe Illustrator 24.3.0, SVG Export Plug-In . SVG Version: 6.00 Build 0)  -->
<svg xmlns="http://www.w3.org/2000/svg" xmlns:xlink="http://www.w3.org/1999/xlink" version="1.1" id="Capa_1" x="0px" y="0px" viewBox="0 0 597.814 597.814" style="enable-background:new 0 0 597.814 597.814;" xml:space="preserve" width="512" height="512">
<g>
	<g>
		<g>
			<path style="fill-rule:evenodd;clip-rule:evenodd;fill:#FFBD86;" d="M298.907,392.424L352,353.502v-94.991     c-7.997,5.428-16.525,9.929-25.352,13.173c-10.022,3.707-18.881,5.561-27.741,5.561s-17.687-1.854-27.741-5.561     c-8.827-3.244-17.321-7.745-25.318-13.173v94.991L298.907,392.424z"/>
		</g>
		<g>
			<path style="fill-rule:evenodd;clip-rule:evenodd;fill:#F6A96C;" d="M271.166,319.179c10.054,3.706,18.881,5.56,27.741,5.56     c6.902,0,13.87-0.926,21.238-3.376c5.907-1.952,5.343,3.541,5.343,9.367v42.2l26.514-19.429v-47.495V258.51     c-7.997,5.428-16.525,9.929-25.352,13.173c-10.022,3.707-18.881,5.561-27.741,5.561c-8.86,0-17.687-1.854-27.741-5.561     c-8.827-3.244-17.321-7.745-25.318-13.173v47.496C253.844,311.401,262.339,315.903,271.166,319.179L271.166,319.179z"/>
		</g>
		<g>
			<path style="fill-rule:evenodd;clip-rule:evenodd;fill:#F6A96C;" d="M182.565,157.001c-46.622,0-37.663,65.666,11.249,62.19     c14.534-24.923,14.7-44.483-5.675-62.19H182.565z"/>
		</g>
		<g>
			<path style="fill-rule:evenodd;clip-rule:evenodd;fill:#FED2A4;" d="M245.581,116.589c-19.744,37.665-39.488,40.412-57.44,40.412     v33.495c0,9.202,2.025,18.965,5.675,28.695c9.092,24.162,28.239,48.323,52.032,64.409c7.997,5.394,16.492,9.895,25.318,13.173     c10.054,3.706,18.881,5.56,27.741,5.56c8.86,0,17.72-1.854,27.741-5.56c8.827-3.277,17.355-7.779,25.352-13.173     c23.76-16.085,42.939-40.246,51.998-64.409c3.684-9.73,5.675-19.493,5.675-28.695v-33.495     C372.739,154.486,292.204,151.639,245.581,116.589L245.581,116.589z"/>
		</g>
		<g>
			<path style="fill-rule:evenodd;clip-rule:evenodd;fill:#F6A96C;" d="M409.673,157.001c-15.331,16.251-16.492,35.016-5.675,62.19     c48.945,3.476,57.872-62.19,11.283-62.19H409.673z"/>
		</g>
		<g>
			<path style="fill-rule:evenodd;clip-rule:evenodd;fill:#554E56;" d="M246.709,40.001c-48.149,1.324-58.568,34.455-58.568,75.662     v41.339c17.952,0,37.696-2.747,57.44-40.412c46.622,35.05,127.158,37.897,164.092,40.412     c42.475-14.564,69.552-99.657,16.79-148.244C357.509,60.39,283.643-14.08,246.709,40.001L246.709,40.001z"/>
		</g>
		<g>
			<path style="fill-rule:evenodd;clip-rule:evenodd;fill:#554E56;" d="M95.559,425.587l202.617,24.823l204.11-24.823     c-3.684-22.573-25.219-67.983-55.217-74.966l-54.553-12.742l-93.609,29.456l-93.577-29.456l-54.587,12.742     C120.778,357.605,99.243,403.015,95.559,425.587L95.559,425.587z"/>
		</g>
		<g>
			<path style="fill-rule:evenodd;clip-rule:evenodd;fill:#433F43;" d="M417.571,369.356c22.996,5.362,41.014,33.329,49.808,56.232     l3.318,7.414l31.591-7.414c-3.684-22.573-25.219-67.983-55.217-74.966l-54.553-12.742l-17.023,21.646L417.571,369.356z"/>
		</g>
		<g>
			<path style="fill-rule:evenodd;clip-rule:evenodd;fill:#FFBD86;" d="M352,283.6c23.76-16.085,42.939-40.246,51.998-64.409     c3.684-9.73,5.675-19.493,5.675-28.695v-33.495c-8.097-0.563-18.284-1.126-29.766-2.053v30.483     c0,9.202-2.025,18.965-5.675,28.729c-9.059,24.129-28.239,48.323-51.998,64.375c-7.997,5.428-16.525,9.897-25.352,13.173     c-8.827,3.276-16.725,5.097-24.522,5.495c9.557,3.409,18.051,5.13,26.547,5.13c8.86,0,17.72-1.854,27.741-5.56     C335.475,293.495,344.003,288.994,352,283.6L352,283.6z"/>
		</g>
		<g>
			<path style="fill-rule:evenodd;clip-rule:evenodd;fill:#433F43;" d="M409.673,157.001c42.475-14.564,69.552-99.657,16.79-148.244     c-6.039,4.534-12.112,8.075-18.184,10.823c36.568,49.447,10.553,122.031-28.372,135.369     C391.389,155.876,401.575,156.438,409.673,157.001L409.673,157.001z"/>
		</g>
		<g>
			<path d="M345.762,205.74c-4.837,0-8.757-3.921-8.757-8.757V186.92c0-4.836,3.92-8.757,8.757-8.757     c4.837,0,8.757,3.921,8.757,8.757v10.063C354.519,201.819,350.599,205.74,345.762,205.74z"/>
		</g>
		<g>
			<path d="M252.085,205.74c-4.836,0-8.757-3.921-8.757-8.757V186.92c0-4.836,3.921-8.757,8.757-8.757     c4.836,0,8.757,3.921,8.757,8.757v10.063C260.842,201.819,256.921,205.74,252.085,205.74z"/>
		</g>
		<g>
			<path d="M298.923,260.51c-6.541,0-13.082-1.521-18.298-4.561c-4.178-2.436-5.591-7.798-3.155-11.976     c2.436-4.178,7.799-5.59,11.976-3.155c4.96,2.892,13.994,2.892,18.954,0c4.176-2.434,9.539-1.024,11.976,3.155     c2.436,4.178,1.023,9.54-3.155,11.976C312.005,258.989,305.463,260.51,298.923,260.51z"/>
		</g>
		<g>
			<polygon style="fill-rule:evenodd;clip-rule:evenodd;fill:#E5E1E5;" points="249.397,393.946 298.907,367.336 245.846,328.413      205.33,337.879    "/>
		</g>
		<g>
			<polygon style="fill-rule:evenodd;clip-rule:evenodd;fill:#E5E1E5;" points="348.449,393.946 392.517,337.879 352,328.413      298.907,367.336    "/>
		</g>
		<g>
			<polygon style="fill-rule:evenodd;clip-rule:evenodd;fill:#D7D0D6;" points="375.493,359.525 392.517,337.879 352,328.413      325.486,347.841    "/>
		</g>
		<g>
			<path d="M409.672,165.76c-3.637,0-7.035-2.284-8.282-5.917c-1.57-4.575,0.865-9.556,5.44-11.125     c14.442-4.956,27.767-20.728,34.777-41.16c1.569-4.575,6.551-7.01,11.124-5.442c4.575,1.57,7.011,6.55,5.441,11.125     c-8.855,25.816-25.923,45.272-45.658,52.043C411.574,165.607,410.615,165.76,409.672,165.76z M188.141,165.758     c-4.836,0-8.757-3.921-8.757-8.757v-41.339c0-34.572,6.617-80.435,62.734-84.211c21.387-27.291,52.577-21.972,82.777-16.82     c31.677,5.404,64.435,10.994,96.321-12.884c3.376-2.528,8.077-2.291,11.181,0.568c19.263,17.743,30.253,41.223,31.778,67.9     c0.277,4.828-3.414,8.966-8.242,9.243c-4.799,0.277-8.967-3.413-9.243-8.243c-0.803-14.027-5.245-33.735-21.23-51.091     c-36.003,23.289-73.254,16.933-103.511,11.771c-33.808-5.767-53.634-8.004-68.008,13.043c-1.584,2.319-4.184,3.738-6.99,3.815     c-35.552,0.979-50.053,20.364-50.053,66.909v41.339C196.898,161.837,192.977,165.758,188.141,165.758z"/>
		</g>
		<g>
			<path d="M298.907,311.089c-9.701,0-19.479-1.938-30.77-6.1c-48.115-17.822-88.753-70.251-88.753-114.493v-33.495     c0-4.836,3.921-8.757,8.757-8.757c16.938,0,32.369-2.688,49.684-35.72c1.193-2.275,3.324-3.913,5.831-4.477     c2.506-0.564,5.134-0.001,7.188,1.543c41.433,31.149,113.015,35.708,151.472,38.157c2.829,0.18,5.488,0.349,7.953,0.517     c4.594,0.313,8.162,4.132,8.162,8.737v33.495c0,44.254-40.639,96.684-88.743,114.489     C318.424,309.15,308.645,311.089,298.907,311.089z M196.898,165.446v25.049c0,36.986,36.126,82.811,77.309,98.065     c9.278,3.42,17.13,5.015,24.7,5.015c7.599,0,15.449-1.594,24.703-5.016c41.181-15.242,77.306-61.067,77.306-98.063v-25.289     c-38.016-2.421-106.555-6.855-152.418-35.97C231.242,157.618,213.297,164.12,196.898,165.446z"/>
		</g>
		<g>
			<path d="M407.668,228.096c-1.499,0-3.018-0.057-4.555-0.172c-4.822-0.36-8.44-4.563-8.08-9.385     c0.361-4.822,4.561-8.431,9.386-8.08c16.998,1.27,25.199-7.279,28.563-12.49c4.719-7.309,5.466-16.26,1.903-22.803     c-3.352-6.155-10.131-9.408-19.604-9.408h-5.608c-4.837,0-8.757-3.921-8.757-8.757c0-4.836,3.92-8.757,8.757-8.757h5.608     c21.651,0,31.213,11.619,34.985,18.545c6.587,12.094,5.578,28.062-2.57,40.681C439.136,220.725,424.714,228.096,407.668,228.096z     "/>
		</g>
		<g>
			<path d="M190.148,228.096c-17.038,0-31.454-7.369-40.012-20.623c-8.149-12.619-9.158-28.587-2.572-40.68     c3.773-6.928,13.337-18.549,35.003-18.549h5.575c4.836,0,8.757,3.921,8.757,8.757c0,4.836-3.921,8.757-8.757,8.757h-5.575     c-9.483,0-16.269,3.255-19.622,9.412c-3.563,6.542-2.815,15.492,1.905,22.802c3.364,5.21,11.544,13.76,28.545,12.487     c4.833-0.359,9.025,3.256,9.386,8.079c0.361,4.823-3.257,9.025-8.079,9.386C193.165,228.039,191.646,228.096,190.148,228.096z"/>
		</g>
		<g>
			<path style="fill-rule:evenodd;clip-rule:evenodd;fill:#99E6FC;" d="M81.689,589.057h434.437     c16.094,0,29.234-13.14,29.234-29.159V454.747c0-16.02-13.14-29.16-29.234-29.16h-13.837H95.559H81.688     c-16.06,0-29.235,13.14-29.235,29.16v105.151C52.454,575.917,65.627,589.057,81.689,589.057L81.689,589.057z"/>
		</g>
		<g>
			<path style="fill-rule:evenodd;clip-rule:evenodd;fill:#62DBFB;" d="M545.359,559.898V454.747c0-16.02-13.14-29.16-29.234-29.16     h-13.837h-14.336c16.094,0,29.234,13.14,29.234,29.16v105.151c0,16.018-13.14,29.159-29.234,29.159h28.173     C532.219,589.057,545.359,575.917,545.359,559.898L545.359,559.898z"/>
		</g>
		<g>
			<path d="M502.354,483.991h-35.208c-4.837,0-8.757-3.92-8.757-8.757c0-4.837,3.92-8.757,8.757-8.757h35.208     c4.837,0,8.757,3.92,8.757,8.757C511.111,480.07,507.191,483.991,502.354,483.991z"/>
		</g>
		<g>
			<path d="M484.667,547.605c-4.837,0-8.757-3.92-8.757-8.757v-61.595c0-4.837,3.92-8.757,8.757-8.757s8.757,3.92,8.757,8.757     v61.595C493.424,543.684,489.504,547.605,484.667,547.605z"/>
		</g>
		<g>
			<path d="M327.81,547.605h-26.646c-4.836,0-8.757-3.92-8.757-8.757v-63.05c0-4.837,3.921-8.757,8.757-8.757h26.646     c4.837,0,8.757,3.92,8.757,8.757c0,4.837-3.92,8.757-8.757,8.757h-17.889v45.535h17.889c4.837,0,8.757,3.92,8.757,8.757     C336.567,543.684,332.647,547.605,327.81,547.605z"/>
		</g>
		<g>
			<path d="M325.852,516.095h-24.688c-4.836,0-8.757-3.92-8.757-8.757s3.921-8.757,8.757-8.757h24.688     c4.837,0,8.757,3.92,8.757,8.757S330.689,516.095,325.852,516.095z"/>
		</g>
		<g>
			<path d="M197.635,547.602c-7.151,0-7.605-0.086-8.292-0.214c-4.14-0.779-7.138-4.394-7.138-8.607v-63.548     c0-4.837,3.921-8.757,8.757-8.757c4.836,0,8.757,3.92,8.757,8.757v54.847c3.982-0.007,8.885-0.027,13.523-0.056     c0.018,0,0.036,0,0.054,0c4.812,0,8.726,3.886,8.756,8.703c0.029,4.837-3.868,8.781-8.704,8.811     C206.053,547.583,201.07,547.602,197.635,547.602z"/>
		</g>
		<g>
			<path d="M256.698,547.902c-4.836,0-8.757-3.92-8.757-8.757v-63.646c0-4.837,3.921-8.757,8.757-8.757     c4.836,0,8.757,3.92,8.757,8.757v63.646C265.455,543.982,261.534,547.902,256.698,547.902z"/>
		</g>
		<g>
			<path d="M127.349,547.606c-22.413,0-40.647-18.197-40.647-40.564c0-22.367,18.234-40.564,40.647-40.564     c8.158,0,16.024,2.395,22.746,6.924c4.011,2.702,5.071,8.145,2.369,12.156c-2.702,4.011-8.144,5.071-12.156,2.368     c-3.819-2.574-8.301-3.934-12.959-3.934c-12.755,0-23.133,10.34-23.133,23.05c0,12.71,10.377,23.05,23.133,23.05     c4.689,0,8.63-1.385,11.712-4.117c0.583-0.519,1.179-1.13,1.755-1.802c3.151-3.669,8.68-4.09,12.349-0.935     c3.668,3.152,4.087,8.681,0.936,12.349c-1.083,1.26-2.229,2.43-3.406,3.48C144.387,544.657,136.32,547.606,127.349,547.606z"/>
		</g>
		<g>
			<path d="M374.333,550.021c-4.837,0-8.757-3.92-8.757-8.757v-67.751c0-3.83,2.489-7.217,6.146-8.359     c3.653-1.143,7.629,0.225,9.811,3.374l31.727,45.821v-40.968c0-4.837,3.92-8.757,8.757-8.757c4.837,0,8.757,3.92,8.757,8.757     v65.599c0,4.676-2.659,8.539-6.775,9.843c-4.032,1.278-8.316-0.269-10.902-3.944l-30.007-43.336v39.721     C383.09,546.101,379.17,550.021,374.333,550.021z"/>
		</g>
		<g>
			<path d="M502.277,434.347c-4.217,0-7.932-3.052-8.633-7.348c-3.254-19.949-23.344-61.978-48.559-67.848l-95.077-22.21     c-3.962-0.926-6.765-4.458-6.765-8.528V283.6c0-4.836,3.92-8.757,8.757-8.757c4.837,0,8.757,3.921,8.757,8.757v37.867     l88.305,20.628c35.172,8.189,57.99,58.319,61.868,82.084c0.779,4.773-2.46,9.275-7.233,10.053     C503.22,434.309,502.744,434.347,502.277,434.347z M95.57,434.346c-0.469,0-0.944-0.038-1.421-0.115     c-4.773-0.779-8.011-5.28-7.233-10.053c3.878-23.763,26.686-73.891,61.839-82.085l88.334-20.628V283.6     c0-4.836,3.921-8.757,8.757-8.757c4.836,0,8.757,3.921,8.757,8.757v44.812c0,4.07-2.803,7.602-6.766,8.528l-95.103,22.21     c-25.198,5.872-45.277,47.901-48.532,67.849C103.501,431.293,99.785,434.346,95.57,434.346z"/>
		</g>
		<g>
			<path d="M249.401,402.705c-2.616,0-5.18-1.172-6.889-3.347l-44.066-56.068c-2.989-3.803-2.329-9.308,1.474-12.296     c3.802-2.989,9.308-2.329,12.296,1.473l39.518,50.281l30.807-16.557l-41.874-30.716c-3.9-2.861-4.742-8.341-1.881-12.24     c2.86-3.902,8.34-4.742,12.24-1.883l53.061,38.922c2.424,1.778,3.766,4.675,3.556,7.673c-0.21,2.998-1.942,5.68-4.589,7.103     l-49.51,26.611C252.231,402.365,250.809,402.705,249.401,402.705z"/>
		</g>
		<g>
			<path d="M348.445,402.705c-1.407,0-2.828-0.34-4.139-1.043l-49.542-26.611c-2.649-1.423-4.383-4.105-4.592-7.104     c-0.21-2.999,1.134-5.896,3.559-7.674l53.092-38.922c3.902-2.859,9.38-2.015,12.24,1.885c2.86,3.901,2.015,9.381-1.885,12.24     l-41.897,30.714l30.83,16.561l39.522-50.283c2.989-3.804,8.494-4.462,12.296-1.473c3.803,2.989,4.462,8.494,1.473,12.296     l-44.068,56.068C353.625,401.533,351.06,402.705,348.445,402.705z"/>
		</g>
		<g>
			<path d="M516.125,597.814H81.689c-20.948,0-37.992-17.009-37.992-37.915V454.747c0-20.907,17.043-37.916,37.992-37.916h197.872     c4.836,0,8.757,3.92,8.757,8.757s-3.921,8.757-8.757,8.757H81.689c-11.291,0-20.478,9.153-20.478,20.402v105.152     c0,11.25,9.186,20.401,20.478,20.401h434.436c11.292,0,20.478-9.152,20.478-20.401V454.747c0-11.25-9.186-20.402-20.478-20.402     H320.111c-4.837,0-8.757-3.92-8.757-8.757s3.92-8.757,8.757-8.757h196.014c20.948,0,37.992,17.009,37.992,37.916v105.152     C554.117,580.805,537.073,597.814,516.125,597.814z"/>
		</g>
	</g>
</g>















</svg>
