<?xml version="1.0" encoding="UTF-8" standalone="no"?>
<!-- Created with Inkscape (http://www.inkscape.org/) -->

<svg
   version="1.1"
   id="svg822"
   xml:space="preserve"
   width="682.66669"
   height="682.66669"
   viewBox="0 0 682.66669 682.66669"
   xmlns="http://www.w3.org/2000/svg"
   xmlns:svg="http://www.w3.org/2000/svg"><defs
     id="defs826"><clipPath
       clipPathUnits="userSpaceOnUse"
       id="clipPath836"><path
         d="M 0,512 H 512 V 0 H 0 Z"
         id="path834" /></clipPath></defs><g
     id="g828"
     transform="matrix(1.3333333,0,0,-1.3333333,0,682.66667)"><g
       id="g830"><g
         id="g832"
         clip-path="url(#clipPath836)"><g
           id="g838"
           transform="translate(502.4521,311.4278)"><path
             d="m 0,0 c 4.069,3.967 1.824,10.877 -3.8,11.695 l -33.379,4.85 c -2.233,0.325 -4.164,1.727 -5.162,3.751 l -14.928,30.246 c -2.515,5.096 -9.781,5.096 -12.296,0 L -84.493,20.296 c -0.998,-2.024 -2.929,-3.426 -5.162,-3.751 l -33.379,-4.85 c -5.624,-0.818 -7.869,-7.728 -3.8,-11.695 l 24.153,-23.543 c 1.617,-1.576 2.354,-3.845 1.973,-6.069 l -5.703,-33.244 c -0.96,-5.601 4.919,-9.873 9.949,-7.228 l 29.855,15.695 c 1.997,1.051 4.383,1.051 6.38,0 l 29.856,-15.695 c 5.03,-2.645 10.909,1.627 9.948,7.228 l -5.702,33.244 c -0.381,2.224 0.356,4.493 1.972,6.069 z"
             style="fill:#fee55a;fill-opacity:1;fill-rule:nonzero;stroke:none"
             id="path840" /></g><g
           id="g842"
           transform="translate(435.7436,271.1861)"><path
             d="m 0,0 c 0.381,2.224 -0.356,4.494 -1.972,6.068 l -24.153,23.544 c -4.07,3.967 -1.824,10.877 3.799,11.695 l 33.379,4.85 c 2.234,0.324 4.164,1.727 5.163,3.751 L 22.915,63.481 9.44,90.784 c -2.515,5.096 -9.782,5.096 -12.296,0 L -17.784,60.538 c -0.999,-2.024 -2.929,-3.427 -5.163,-3.751 l -33.379,-4.85 c -5.623,-0.818 -7.869,-7.729 -3.799,-11.695 l 24.153,-23.544 c 1.616,-1.574 2.353,-3.844 1.972,-6.068 l -5.702,-33.245 c -0.961,-5.6 4.918,-9.872 9.948,-7.227 l 27.077,14.235 z"
             style="fill:#ffd301;fill-opacity:1;fill-rule:nonzero;stroke:none"
             id="path844" /></g><g
           id="g846"
           transform="translate(9.6084,311.4278)"><path
             d="m 0,0 c -4.069,3.967 -1.824,10.877 3.8,11.695 l 33.379,4.85 c 2.233,0.325 4.163,1.727 5.162,3.751 l 14.928,30.246 c 2.515,5.096 9.781,5.096 12.296,0 L 84.493,20.296 c 0.998,-2.024 2.928,-3.426 5.162,-3.751 l 33.379,-4.85 C 128.658,10.877 130.903,3.967 126.833,0 l -24.152,-23.543 c -1.617,-1.576 -2.354,-3.845 -1.973,-6.069 l 5.703,-33.244 c 0.96,-5.601 -4.919,-9.873 -9.949,-7.228 l -29.855,15.695 c -1.997,1.051 -4.383,1.051 -6.38,0 L 30.371,-70.084 c -5.03,-2.645 -10.909,1.627 -9.948,7.228 l 5.702,33.244 c 0.381,2.224 -0.356,4.493 -1.972,6.069 z"
             style="fill:#fee55a;fill-opacity:1;fill-rule:nonzero;stroke:none"
             id="path848" /></g><g
           id="g850"
           transform="translate(61.8999,273.9825)"><path
             d="m 0,0 c 0.382,2.224 -0.355,4.494 -1.972,6.069 l -24.153,23.543 c -4.069,3.967 -1.824,10.878 3.8,11.695 l 33.379,4.85 c 2.233,0.324 4.164,1.727 5.162,3.751 l 9.926,20.111 -8.869,17.968 c -2.515,5.096 -9.781,5.096 -12.296,0 L -9.95,57.741 c -0.999,-2.024 -2.929,-3.426 -5.163,-3.75 L -48.492,49.14 c -5.624,-0.817 -7.869,-7.728 -3.8,-11.694 l 24.153,-23.544 c 1.617,-1.575 2.354,-3.844 1.972,-6.069 l -5.702,-33.244 c -0.96,-5.601 4.919,-9.872 9.949,-7.228 l 17.94,9.432 z"
             style="fill:#ffd301;fill-opacity:1;fill-rule:nonzero;stroke:none"
             id="path852" /></g><g
           id="g854"
           transform="translate(436.6494,286.1602)"><path
             d="m 0,0 c 4.997,4.871 2.24,13.358 -4.667,14.362 l -40.99,5.956 c -2.743,0.399 -5.114,2.121 -6.34,4.606 l -18.332,37.144 c -3.088,6.258 -12.012,6.258 -15.1,0 l -18.332,-37.144 c -1.226,-2.485 -3.597,-4.207 -6.34,-4.606 l -40.99,-5.956 C -157.998,13.358 -160.755,4.871 -155.758,0 l 29.661,-28.913 c 1.985,-1.934 2.89,-4.721 2.422,-7.452 l -7.002,-40.825 c -1.18,-6.878 6.039,-12.124 12.217,-8.876 l 36.663,19.274 c 2.453,1.291 5.383,1.291 7.836,0 l 36.664,-19.274 c 6.176,-3.248 13.396,1.998 12.216,8.876 l -7.002,40.825 c -0.468,2.731 0.437,5.518 2.422,7.452 z"
             style="fill:#fee55a;fill-opacity:1;fill-rule:nonzero;stroke:none"
             id="path856" /></g><g
           id="g858"
           transform="translate(346.7246,239.5191)"><path
             d="m 0,0 c 0.468,2.731 -0.437,5.518 -2.422,7.452 l -29.661,28.913 c -4.998,4.871 -2.24,13.358 4.666,14.362 l 40.991,5.956 c 2.743,0.399 5.113,2.121 6.34,4.606 l 11.543,23.388 -11.861,24.032 c -3.089,6.258 -12.012,6.258 -15.1,0 L -13.836,71.565 c -1.227,-2.485 -3.597,-4.207 -6.34,-4.606 L -61.167,61.003 C -68.073,60 -70.831,51.512 -65.833,46.641 l 29.661,-28.912 c 1.985,-1.935 2.89,-4.722 2.422,-7.453 l -7.002,-40.825 c -1.18,-6.878 6.039,-12.124 12.216,-8.876 l 23.932,12.581 z"
             style="fill:#ffd301;fill-opacity:1;fill-rule:nonzero;stroke:none"
             id="path860" /></g><g
           id="g862"
           transform="translate(75.4111,286.1602)"><path
             d="m 0,0 c -4.998,4.871 -2.24,13.358 4.667,14.362 l 40.99,5.956 c 2.743,0.399 5.114,2.121 6.34,4.606 l 18.332,37.144 c 3.088,6.258 12.012,6.258 15.1,0 l 18.332,-37.144 c 1.226,-2.485 3.597,-4.207 6.34,-4.606 l 40.99,-5.956 C 157.998,13.358 160.755,4.871 155.758,0 l -29.661,-28.913 c -1.985,-1.934 -2.89,-4.721 -2.422,-7.452 l 7.002,-40.825 c 1.18,-6.878 -6.04,-12.124 -12.217,-8.876 l -36.663,19.274 c -2.453,1.291 -5.383,1.291 -7.836,0 L 37.297,-86.066 c -6.176,-3.248 -13.396,1.998 -12.216,8.876 l 7.002,40.825 c 0.468,2.731 -0.437,5.518 -2.422,7.452 z"
             style="fill:#fee55a;fill-opacity:1;fill-rule:nonzero;stroke:none"
             id="path864" /></g><g
           id="g866"
           transform="translate(144.8276,239.5191)"><path
             d="m 0,0 c 0.468,2.731 -0.437,5.518 -2.422,7.452 l -29.661,28.913 c -4.998,4.871 -2.24,13.358 4.666,14.362 l 40.991,5.956 c 2.743,0.399 5.113,2.121 6.34,4.606 l 9.751,19.758 -13.652,27.662 c -3.089,6.258 -12.013,6.258 -15.101,0 L -17.419,71.565 c -1.227,-2.485 -3.598,-4.207 -6.34,-4.606 L -64.75,61.003 C -71.656,60 -74.414,51.512 -69.417,46.641 l 29.662,-28.912 c 1.984,-1.935 2.89,-4.722 2.422,-7.453 l -7.003,-40.825 c -1.18,-6.878 6.04,-12.124 12.217,-8.876 l 27.869,14.652 z"
             style="fill:#ffd301;fill-opacity:1;fill-rule:nonzero;stroke:none"
             id="path868" /></g><g
           id="g870"
           transform="translate(355.4902,257.3838)"><path
             d="m 0,0 c 6.382,6.221 2.86,17.06 -5.959,18.341 l -52.351,7.607 c -3.502,0.509 -6.53,2.708 -8.096,5.883 l -23.411,47.436 c -3.945,7.992 -15.341,7.992 -19.286,0 l -23.411,-47.436 c -1.567,-3.175 -4.594,-5.374 -8.097,-5.883 L -192.96,18.341 C -201.78,17.06 -205.302,6.221 -198.92,0 l 37.88,-36.925 c 2.535,-2.47 3.692,-6.03 3.094,-9.517 l -8.943,-52.139 c -1.507,-8.784 7.713,-15.483 15.602,-11.336 l 46.824,24.616 c 3.132,1.648 6.874,1.648 10.006,0 l 46.824,-24.616 c 7.889,-4.147 17.109,2.552 15.602,11.336 l -8.943,52.139 c -0.598,3.487 0.558,7.047 3.094,9.517 z"
             style="fill:#fee55a;fill-opacity:1;fill-rule:nonzero;stroke:none"
             id="path872" /></g><g
           id="g874"
           transform="translate(247.2104,196.6079)"><path
             d="m 0,0 c 0.598,3.488 -0.558,7.048 -3.093,9.518 l -37.881,36.924 c -6.381,6.221 -2.86,17.06 5.96,18.342 l 52.35,7.607 c 3.502,0.508 6.53,2.708 8.097,5.882 l 11.757,23.824 -18.728,37.946 c -3.944,7.993 -15.34,7.993 -19.285,0 L -24.234,92.606 c -1.566,-3.173 -4.594,-5.373 -8.097,-5.882 l -52.35,-7.607 C -93.5,77.835 -97.022,66.997 -90.64,60.776 l 37.88,-36.925 c 2.535,-2.47 3.692,-6.03 3.093,-9.518 l -8.942,-52.138 c -1.507,-8.784 7.713,-15.483 15.602,-11.336 l 38.006,19.981 z"
             style="fill:#ffd301;fill-opacity:1;fill-rule:nonzero;stroke:none"
             id="path876" /></g><g
           id="g878"
           transform="translate(436.6186,286.1426)"><path
             d="m 0,0 c 4.999,4.872 2.24,13.361 -4.668,14.365 l -41.001,5.958 c -2.744,0.399 -5.115,2.122 -6.342,4.608 l -18.336,37.153 c -3.09,6.26 -12.016,6.26 -15.105,0 l -18.336,-37.153 c -1.227,-2.486 -3.599,-4.209 -6.342,-4.608 l -41.001,-5.958 c -0.631,-0.092 -1.215,-0.265 -1.774,-0.472 l 5.341,-10.821 c 1.565,-3.175 4.593,-5.374 8.096,-5.883 l 52.35,-7.607 c 8.82,-1.282 12.342,-12.12 5.959,-18.341 l -37.88,-36.925 c -2.535,-2.47 -3.691,-6.029 -3.093,-9.518 l 1.978,-11.533 c 0.558,0.159 1.114,0.358 1.662,0.646 l 36.674,19.279 c 2.453,1.291 5.384,1.291 7.837,0 l 36.673,-19.279 c 6.179,-3.248 13.401,1.998 12.221,8.878 l -7.005,40.836 c -0.468,2.732 0.438,5.52 2.423,7.455 z"
             style="fill:none;stroke:#020202;stroke-width:15;stroke-linecap:round;stroke-linejoin:round;stroke-miterlimit:10;stroke-dasharray:none;stroke-opacity:1"
             id="path880" /></g><g
           id="g882"
           transform="translate(195.5351,199.4073)"><path
             d="m 0,0 1.979,11.534 c 0.598,3.488 -0.559,7.048 -3.093,9.518 l -37.881,36.925 c -6.382,6.22 -2.86,17.059 5.959,18.34 l 52.35,7.607 c 3.503,0.51 6.531,2.709 8.097,5.883 l 5.34,10.821 c -0.559,0.207 -1.142,0.381 -1.773,0.473 l -41.002,5.958 c -2.743,0.398 -5.115,2.121 -6.342,4.607 l -18.336,37.153 c -3.089,6.261 -12.015,6.261 -15.105,0 l -18.336,-37.153 c -1.227,-2.486 -3.598,-4.209 -6.341,-4.607 l -41.002,-5.958 c -6.908,-1.004 -9.666,-9.494 -4.667,-14.366 l 29.669,-28.92 c 1.984,-1.935 2.89,-4.723 2.422,-7.454 L -95.066,9.524 c -1.181,-6.879 6.041,-12.126 12.22,-8.878 l 36.673,19.28 c 2.453,1.29 5.384,1.29 7.838,0 L -1.662,0.646 C -1.114,0.358 -0.558,0.159 0,0 Z"
             style="fill:none;stroke:#020202;stroke-width:15;stroke-linecap:round;stroke-linejoin:round;stroke-miterlimit:10;stroke-dasharray:none;stroke-opacity:1"
             id="path884" /></g><g
           id="g886"
           transform="translate(107.4731,249.7681)"><path
             d="m 0,0 c 0.468,2.731 -0.437,5.52 -2.422,7.454 l -29.669,28.921 c -4.999,4.872 -2.241,13.361 4.667,14.365 l 41.002,5.958 c 2.743,0.398 5.114,2.121 6.341,4.607 l 5.876,11.905 c -0.216,0.053 -0.429,0.111 -0.656,0.144 L -8.24,78.205 c -2.233,0.324 -4.164,1.727 -5.162,3.751 l -14.928,30.246 c -2.515,5.096 -9.781,5.096 -12.296,0 L -55.554,81.956 c -0.999,-2.024 -2.929,-3.427 -5.162,-3.751 l -33.379,-4.851 c -5.624,-0.816 -7.869,-7.728 -3.8,-11.694 l 24.153,-23.544 c 1.616,-1.574 2.353,-3.845 1.972,-6.068 l -5.702,-33.244 c -0.961,-5.601 4.918,-9.873 9.948,-7.228 l 29.856,15.695 c 1.997,1.051 4.383,1.051 6.38,0 L -1.444,-8.418 Z"
             style="fill:none;stroke:#020202;stroke-width:15;stroke-linecap:round;stroke-linejoin:round;stroke-miterlimit:10;stroke-dasharray:none;stroke-opacity:1"
             id="path888" /></g><g
           id="g890"
           transform="translate(490.0659,299.3838)"><path
             d="m 0,0 12.356,12.044 c 4.069,3.966 1.824,10.878 -3.8,11.695 l -33.379,4.85 c -2.233,0.325 -4.163,1.727 -5.162,3.751 l -14.928,30.246 c -2.515,5.096 -9.781,5.096 -12.296,0 L -72.137,32.34 c -0.998,-2.024 -2.928,-3.426 -5.162,-3.751 l -33.379,-4.85 c -0.227,-0.033 -0.44,-0.092 -0.656,-0.144 l 5.876,-11.906 c 1.227,-2.485 3.598,-4.208 6.341,-4.607 l 41.002,-5.958 c 6.908,-1.004 9.666,-9.493 4.668,-14.365 l -29.669,-28.921 c -1.986,-1.934 -2.891,-4.722 -2.423,-7.454 l 1.444,-8.418 29.844,15.69 c 1.997,1.05 4.383,1.05 6.38,0 l 29.856,-15.696 c 5.03,-2.645 10.909,1.627 9.948,7.228 l -2.993,17.451"
             style="fill:none;stroke:#020202;stroke-width:15;stroke-linecap:round;stroke-linejoin:round;stroke-miterlimit:10;stroke-dasharray:none;stroke-opacity:1"
             id="path892" /></g><g
           id="g894"
           transform="translate(273.5,165.5137)"><path
             d="m 0,0 34.327,-18.046 c 7.889,-4.148 17.109,2.551 15.602,11.335 l -8.943,52.139 c -0.598,3.488 0.558,7.047 3.094,9.517 L 81.96,91.87 c 6.382,6.221 2.86,17.06 -5.96,18.341 l -52.349,7.607 c -3.503,0.509 -6.53,2.709 -8.097,5.883 l -23.411,47.436 c -3.945,7.993 -15.341,7.993 -19.286,0 l -23.411,-47.436 c -1.566,-3.174 -4.594,-5.374 -8.096,-5.883 L -111,110.211 c -8.82,-1.281 -12.342,-12.12 -5.96,-18.341 l 37.88,-36.925 c 2.536,-2.47 3.692,-6.029 3.094,-9.517 l -8.943,-52.139 c -1.507,-8.784 7.714,-15.483 15.602,-11.335 L -35,0"
             style="fill:none;stroke:#020202;stroke-width:15;stroke-linecap:round;stroke-linejoin:round;stroke-miterlimit:10;stroke-dasharray:none;stroke-opacity:1"
             id="path896" /></g></g></g></g></svg>
